<svg width="30" height="30" viewBox="0 0 30 30" fill="none" xmlns="http://www.w3.org/2000/svg">
<path d="M25.786 12.8457H24.9V12.8H15V17.2H21.2166C20.3097 19.7614 17.8726 21.6 15 21.6C11.3551 21.6 8.39997 18.6448 8.39997 15C8.39997 11.3552 11.3551 8.4 15 8.4C16.6824 8.4 18.2131 9.0347 19.3785 10.0714L22.4899 6.9601C20.5253 5.12915 17.8974 4 15 4C8.92522 4 3.99997 8.92525 3.99997 15C3.99997 21.0748 8.92522 26 15 26C21.0747 26 26 21.0748 26 15C26 14.2625 25.9241 13.5425 25.786 12.8457Z" fill="#FFC107"/>
<path d="M5.26825 9.88005L8.8823 12.5305C9.8602 10.1094 12.2285 8.4 14.9999 8.4C16.6824 8.4 18.213 9.0347 19.3785 10.0715L22.4898 6.9601C20.5252 5.12915 17.8973 4 14.9999 4C10.7748 4 7.11075 6.38535 5.26825 9.88005Z" fill="#FF3D00"/>
<path d="M15 26C17.8413 26 20.423 24.9127 22.3749 23.1444L18.9704 20.2635C17.8289 21.1316 16.4341 21.6012 15 21.6C12.1389 21.6 9.70953 19.7757 8.79433 17.2297L5.20723 19.9935C7.02773 23.5558 10.7248 26 15 26Z" fill="#4CAF50"/>
<path d="M25.786 12.8457H24.9V12.8H15V17.2H21.2166C20.7828 18.4191 20.0013 19.4843 18.9688 20.2641L18.9704 20.263L22.3749 23.1439C22.134 23.3628 26 20.5 26 15C26 14.2625 25.9241 13.5425 25.786 12.8457Z" fill="#1976D2"/>
</svg>
