<svg width="30" height="30" viewBox="0 0 30 30" fill="none" xmlns="http://www.w3.org/2000/svg">
<path fill-rule="evenodd" clip-rule="evenodd" d="M19.3944 4.68879C19.6808 3.95009 19.8316 3.25663 19.8316 2.63854L19.8165 2.33703C19.8115 2.30688 19.8048 2.27505 19.797 2.24099L19.7411 2.00537C17.9924 2.41241 16.7261 3.1511 15.9723 4.23653C15.2185 5.32195 14.8266 6.61844 14.7964 8.1109C15.505 8.0506 16.0175 7.96014 16.3643 7.85462C16.907 7.67371 17.4497 7.3119 17.9924 6.76919C18.6256 6.13602 19.0929 5.44256 19.3944 4.68879ZM23.1181 18.4225C23.8115 19.4174 24.6105 20.0506 25.5 20.322C25.1231 21.5129 24.5201 22.7792 23.6457 24.0908C22.3492 26.0657 21.0527 27.0456 19.7713 27.0456C19.2588 27.0456 18.5653 26.8797 17.6608 26.5632C16.7713 26.2315 16.0025 26.0808 15.3844 26.0808C14.7814 26.0808 14.0578 26.2466 13.2437 26.5782C12.4145 26.925 11.7512 27.0908 11.2537 27.0908C9.70097 27.0908 8.20851 25.7792 6.71605 23.1863C5.25374 20.5933 4.49997 18.0757 4.49997 15.6034C4.49997 13.2968 5.07283 11.4275 6.20349 9.96518C7.33414 8.51794 8.75123 7.79432 10.4849 7.79432C11.2236 7.79432 12.098 7.94508 13.1532 8.24658C14.1934 8.54809 14.8869 8.69884 15.2336 8.69884C15.6708 8.69884 16.3944 8.53302 17.3894 8.18628C18.3844 7.85462 19.2588 7.67372 19.9975 7.67372C21.2035 7.67372 22.2738 8.00538 23.2085 8.65362C23.7362 9.01543 24.2638 9.52799 24.7764 10.1612C23.9924 10.8245 23.4196 11.4124 23.0578 11.9401C22.4095 12.8747 22.0779 13.9149 22.0779 15.0607C22.0779 16.2968 22.4246 17.4275 23.1181 18.4225Z" fill="white"/>
</svg>
